<svg xmlns="http://www.w3.org/2000/svg" viewBox="0 0 147.26 96.6"><defs><style>.cls-1{stroke:#000;stroke-miterlimit:10;}</style></defs><g id="Layer_2" data-name="Layer 2"><g id="Layer_1-2" data-name="Layer 1"><path class="cls-1" d="M146.64,34.67h-7.8V10.6l-6.76.11q-.12,12-.23,24H116.61v-24h-6.08q-.11,11.92-.23,23.84l-14.9-.11,12-18.68L83.6,23.55a63.66,63.66,0,0,1,11-22.24A35,35,0,0,0,78.44,16.56,34.46,34.46,0,0,0,74.54,33l18.92-6.77L89.1,34.44H69.62V10.83L49,34.44H36.61V23.66h7.11V17.47H37.07V11H30.66v6.71H15.07V11.22H8.88v6.71H.62v5.62l7.79.11V34.09H.5V41H7.84v7.12l7,.11V40.28l15.36.35v7.79l6.76.11V40.28l7.57-.11-6.19,8.36h8.36q3.33-4.19,6.64-8.39L63.67,27.51c0,2.21.08,4.41.13,6.62H59.71l-4.77,6h8v8.28h7.1v-8H85.43c-4,6.84-7.1,12.62-9.4,17a102.8,102.8,0,0,0-4.86,10.11c-2.28,5.63-3.6,8.9-3.79,13.25A26.6,26.6,0,0,0,70.45,94a47.58,47.58,0,0,1,.22-10.84,55.37,55.37,0,0,1,4.16-14.11c1.64-3.86,2.93-6,9-15.95l7.79-12.84H110.4v8.14h6.21v-8H132v7.91h6.31V40.86h8.48Q146.69,37.75,146.64,34.67Zm-116,.23H14.72v-11H30.65Z"/></g></g></svg>