<svg xmlns="http://www.w3.org/2000/svg" viewBox="0 0 186.37 143.16"><defs><style>.cls-1,.cls-2{fill:#fff;}.cls-2,.cls-4{stroke:#fff;}.cls-2,.cls-3,.cls-4{stroke-miterlimit:10;}.cls-3{fill:#1a1a1a;stroke:#000;}.cls-4{fill:none;}</style></defs><g id="Layer_2" data-name="Layer 2"><g id="Layer_1-2" data-name="Layer 1"><path d="M51.51,87l-4.17-3,0,.38,0,.5a9.27,9.27,0,0,0,4,8.5l.61.42,1.32-5.57ZM51.18,92a8.29,8.29,0,0,1-3-6.23L52,88.58Z"/><path d="M133.15,89.16l.64,4.6.66-.43a7.85,7.85,0,0,0,3.64-6.6v-1Zm2.9,1.17A6.66,6.66,0,0,1,134.56,92l-.33-2.38L137,87.73A6.94,6.94,0,0,1,136.05,90.33Z"/><path class="cls-1" d="M142.29,75.49l0-2.55.74.36-.08,2.46Z"/><path d="M139.74,72l4.17.5-.2,3.85-3.88-1.49Z"/><path d="M139.76,71.49l-.37,0-.17,0v0l.13,3.75.26.1,4.57,1.75,0-.51.21-4,0-.48Zm3.49,4.13-.32-.12-.64-.25-2-.75-.06-1.94,3.13.37Z"/><path d="M140.67,63.47h-3.41l.06,1.84,3.37.52Z"/><path d="M141.19,65.89l0-2.44V63h-4.41v0l.09,2.74h0l4.31.67Zm-1-.65-2.38-.37,0-.91h2.39Z"/><path class="cls-1" d="M139.86,74.86,139.78,72l0-.5v0h-.54l-13-.36-.72,0,.72.22,13.43,4,.27.08ZM133,72.28l5.8.16.05,1.58Z"/><path class="cls-1" d="M137.57,65.34l0-1.88v-.52l-.32,0-.44,0-10.26.67,0,1,10.37,1.08h0l.69.07Zm-5.14-1.07,4.1-.27,0,.7Z"/><path class="cls-1" d="M139.77,80.91v-.35L129.2,78.91l.41.19.53.25,9.54,4.44.16.08ZM136,81l2.76.43,0,.87Z"/><path d="M50.67,55.15C53.4,59.56,56,63.39,58.74,67.8c-3.86-3.06-7.23-5.92-11.09-9C48.78,57.47,49.55,56.5,50.67,55.15Z"/><path class="cls-1" d="M60.16,69.14l-1-1.6c-1.37-2.21-2.73-4.3-4-6.33s-2.67-4.12-4-6.32l-.37-.59-.34.41-.1.12c-.56.67-1,1.26-1.51,1.84s-1,1.15-1.51,1.83v0l-.32.37.4.32c1.92,1.53,3.73,3,5.54,4.49s3.62,3,5.55,4.49l1.73,1.38.52.41ZM49.55,57.3,50.62,56c.58.93,1.15,1.84,1.73,2.74s1.3,2,1.94,3c.8,1.24,1.62,2.5,2.45,3.8l-3.23-2.63L50.66,60.6l-2.3-1.86C48.79,58.23,49.17,57.77,49.55,57.3Z"/><path class="cls-2" d="M127.78,47.86c-.15-1.09-.29-2.18-.44-3.27a53.35,53.35,0,0,0-7.14-4.12,56.53,56.53,0,0,0-5.9-2.4,48.73,48.73,0,0,0-5.11-1.53,49.38,49.38,0,0,0-5.33-1h0l-1-.12c-1.36-.14-2.51-.22-3.38-.27l-.73,0c-1.13-.06-2.18-.08-3.13-.08-2.23,0-4,.06-5,.12h-.06a77.12,77.12,0,0,0-12.73,1.55,54,54,0,0,0-10.9,3.34,50.33,50.33,0,0,0-8.8,5c-.19,1.07-.38,2.14-.56,3.21a11.45,11.45,0,0,0-1.77,1.27,12.71,12.71,0,0,0-2,2.2l-.23.35,3.34.24a4.1,4.1,0,0,1,1.51-1.51,3.36,3.36,0,0,1,1.25-.44,3.16,3.16,0,0,1,1.5.18H63A50.42,50.42,0,0,1,75.47,44.4a54.63,54.63,0,0,1,9.41-2.14c1.68-.23,3-.34,4.12-.42a72.89,72.89,0,0,1,8.67-.24,43.39,43.39,0,0,1,10.61,1.46A48.59,48.59,0,0,1,119.46,48c1.68.94,3.05,1.8,4,2.43a20,20,0,0,1,3.4,0,2.48,2.48,0,0,1,1.73.54,2,2,0,0,1,.45,1.4h.12l3.56.23ZM90,37.38c19.18-1.16,33.9,8,33.8,8.29s-14.41-8.1-33.86-7C73.07,39.7,61.33,47.3,61.22,47S73.32,38.39,90,37.38Z"/><path class="cls-3" d="M173.65,61.12l11.21-8.24-51.5-.26-5.24-5.13c-.2-1-.39-2-.59-3A56.11,56.11,0,0,0,118,39.11a38,38,0,0,0-8.29-2.89,31.5,31.5,0,0,0-5.84-.65h0l-1-.12,3.29-5.8-3.5-6.9q-3.51,6.15-7,12.31c-2.23,0-4,.06-5,.12L98,10.87,93.07,1.18,77.86,36.45a43,43,0,0,0-20.08,8.48c-.12,1-.23,1.94-.35,2.91a16.12,16.12,0,0,0-2.33,1.87,16.51,16.51,0,0,0-1.75,2c-.13.17-.24.33-.35.49l-.44,0-4-.16c.62.9,1.23,1.81,1.85,2.7l0,0-3.11,3.8-.05,0-7.73-6.6L30,51.83,44.09,64.94l.17.16c-.47.91-.93,1.83-1.4,2.75l0,0-27-16.44L1.54,51.31,40.9,80.22a33.51,33.51,0,0,0,2.32,12.11,33.91,33.91,0,0,0,5.45,9.19c-.3.85-.6,1.7-.89,2.55l1.73.6.12,5-4.13,1.78L43,118.94l8.42-3.19a32.05,32.05,0,0,0,1.94,5l-14,9.54-3.78,11.83L60,128.89l6.28,3a24.37,24.37,0,0,0,7.1,1.16,21.08,21.08,0,0,1,3.41.23,19.14,19.14,0,0,1,3,.7,37.3,37.3,0,0,0-.94-4.9,38.51,38.51,0,0,0-2.25-6.24,85.13,85.13,0,0,0-4.84-9.28c-3.8-6.47-5.82-9.08-5.65-9.2s4.58,5.1,8.57,11.58a56.28,56.28,0,0,1,3.13,5.71,35.28,35.28,0,0,1,3,8.94,28.47,28.47,0,0,1,.36,3.25l4.5.23a7.83,7.83,0,0,0,2-3.56,8.93,8.93,0,0,0-.58-5.24c-1-2.83-2.34-6.39-4.11-10.49l9.54-5.51,8.62,4.54c.85-2.74,1.7-5.49,2.56-8.23l.39,9.1a40.86,40.86,0,0,0-4.31,9.2c-1.54,4.75-1.22,6.43-.58,7.56a5.89,5.89,0,0,0,2.66,2.35l4.06-.1a35.57,35.57,0,0,1,.83-4.85,34.44,34.44,0,0,1,1.45-4.52s0,0,0,0c1-2.17,1.79-3.88,2.46-5.3.06-.11.12-.22.17-.33.6-1.13,1.4-2.58,2.54-4.44,2.36-3.86,4.82-7.37,6.24-9.22l0,0c.34-.41.69-.83,1.06-1.25a.12.12,0,0,1,0,0s0,0,0,0,0,0,0,0a5.81,5.81,0,0,1-.63,1.24l-.15.28c-1.13,2-3.42,5.78-6.65,11.6a57.18,57.18,0,0,0-3.46,7.26c-.75,1.93-1.28,3.62-1.61,4.73-.54,1.86-.94,3.56-1.23,5.05a24.72,24.72,0,0,1,2.74-.59c1.65-.25,2.15-.13,3.86-.3.45,0,.88-.1,1.29-.16l.62-.09a27.67,27.67,0,0,0,2.8-.6,22,22,0,0,0,3.67-1.2,19.63,19.63,0,0,0,4.41-2.81,21.08,21.08,0,0,0,4.85-5.92l5.4,11.45,12.69,7.2q-4.23-12.6-8.44-25.19l-4.41-13.86a31.94,31.94,0,0,0,7.68-20.58l4.23-2.89-4.32-1.75-.14-.05.24-4h.11l11.62.7,6.55-4.72-21.4-2.62h0c0-.81,0-1.63,0-2.44h0ZM136.3,101.2a3.28,3.28,0,0,1-3.17-.67,3,3,0,0,1-.87-2,1.62,1.62,0,0,0,0-.22,1.83,1.83,0,0,1,0-.33,3.22,3.22,0,0,1,.27-.93c.6-1.22,1.85-1.19,3.43-2.09,2.26-1.27,3.28-3.35,4.42-5.67a18,18,0,0,0,1.76-6.34l0-.39c0-.25,0-.49,0-.71s0-.4,0-.58h1c0,.48,0,1,0,1.63l0,.55q0,.49-.09,1c0,.26-.07.53-.1.81-.11.83-.28,1.73-.5,2.67a43.51,43.51,0,0,1-1.59,4.59C138.2,99.7,137.53,100.8,136.3,101.2ZM54.82,121.13c-4.31-7-3.15-15.1-2.71-15.15s0,7.38,4.8,14.9c4,6.29,9.32,8.93,9.1,9.23S58.83,127.69,54.82,121.13ZM137,87.73a6.94,6.94,0,0,1-1,2.6A6.66,6.66,0,0,1,134.56,92l-.33-2.38ZM63.12,79.21V73.62h8.1v5.59Zm60.65-33.54c-.09.28-14.41-8.1-33.86-7C73.07,39.7,61.33,47.3,61.22,47S73.32,38.39,90,37.38C109.15,36.22,123.87,45.38,123.77,45.67ZM50,101.17c-1.91-.65-2.86-2.67-4.68-6.66A35.19,35.19,0,0,1,43,88.42a31.63,31.63,0,0,1-1-7.2l1.31.69a25.67,25.67,0,0,0,1.09,5c.82,2.58,1.38,4.36,2.92,6a20.83,20.83,0,0,0,3.44,2.68c1.8,1.22,2.73,1.56,3.07,2.64a2.66,2.66,0,0,1-.58,2.61C52.15,101.88,50.26,101.26,50,101.17ZM121,129.34h0a31.23,31.23,0,0,0,9.36-10c3.79-6.76,3.43-13.13,3.66-13.13,0,0,.08.15.14.42,0,0,0,.1,0,.16s0,.11,0,.17,0,.17,0,.26,0,.21,0,.33c0,.52,0,1.17,0,1.91l0,.53c0,.34-.06.7-.1,1.07a23.57,23.57,0,0,1-3,9.2c-3.77,6.52-10.1,9.43-10.26,9.23C120.86,129.45,120.89,129.41,121,129.34Z"/><path class="cls-2" d="M130.14,79.35V79.1h-4V66.87l-3.43.06-.12,12.17h-7.74V66.93H111.8L111.68,79,104.11,79l6.12-9.49-12.11,4a32.15,32.15,0,0,1,5.59-11.3A17.79,17.79,0,0,0,95.5,69.9a17.46,17.46,0,0,0-2,8.32l9.6-3.43c-.73,1.4-1.47,2.79-2.21,4.19H91V67L80.53,79H74.24V73.51h3.62V70.36H74.48V67.07H71.22v3.41H63.3V67.19H60.16V70.6H56v2.85l4,.06v5.3h-4v3.48h3.73v3.62l3.55.06V82l7.8.17v4l3.44.06V82l3.84-.06c-1.05,1.42-2.09,2.84-3.14,4.25h4.25l3.37-4.26L88,75.46c0,1.12,0,2.24.07,3.36H86l-2.42,3.06h4.08v4.2h3.6V82h7.81c-2,3.47-3.61,6.41-4.78,8.62a53.63,53.63,0,0,0-2.47,5.13c-1.15,2.86-1.83,4.52-1.92,6.73a13.41,13.41,0,0,0,1.56,6.76,23.71,23.71,0,0,1,.11-5.51,28.18,28.18,0,0,1,2.11-7.16c.84-2,1.49-3,4.57-8.11,1-1.57,3-4.86,4-6.52h9.54v4.13h3.16V82h7.79v4h3.21V82.24h4.31Zm-58.92-.14h-8.1V73.62h8.1Z"/><path class="cls-1" d="M129.07,51.18a2,2,0,0,0-1.79-1h-1.21c-.89,0-1.76,0-2.6-.06l-8.36-4.88a46.52,46.52,0,0,0-8.22-2.7,50.08,50.08,0,0,0-11.23-1.16,67.6,67.6,0,0,0-15.22,1.46l-.75.17a48.27,48.27,0,0,0-7,2.08A47.63,47.63,0,0,0,63,50.17l-1.8,0-.58-.26L59,50l-.17,0a4.65,4.65,0,0,0-1.16.76,4.23,4.23,0,0,0-.9,1.12l-3-.22h-.42c-.32,0-.37,0-.45.11l-.37.32,0,0,.28.34c.15.18.15.18,2.24.38L64.47,62l-3.22-9L71.51,53l3.3-7.42A37.79,37.79,0,0,1,79.92,44l.66-.14.07,0,.32-.07A37.6,37.6,0,0,1,87.5,43l-2.13,9.05,6.28-9.41a35.12,35.12,0,0,1,3.54-.18c1.12,0,2.24,0,3.35.13l-4.83,9.75,9.77-8.93a15.42,15.42,0,0,1,6.08.94l-5.71,8,9.61-6.17,2.74,6.49,12.82.16.11-.36s0-.09,0-.14A1.79,1.79,0,0,0,129.07,51.18ZM70.87,52l-11-.05,2.26,6.37-5.56-5.36.5,0,.35,0,.14-.31a3.41,3.41,0,0,1,.83-1.12,3.46,3.46,0,0,1,.82-.55l1.23-.09.44.19,2.42.08.13-.09A46.1,46.1,0,0,1,73,46l.57-.21Zm16.75-5.07,1-4.29c.63-.06,1.27-.1,1.94-.14ZM97,48l2.74-5.52c.94.06,1.93.15,3,.28Zm10.69.73,3-4.17c.77.25,1.53.52,2.27.81Zm9.2,3L114.46,46l.2.09,8.52,5h.12c.9,0,1.82.06,2.77.07h1.24a.89.89,0,0,1,.85.46.78.78,0,0,1,.07.25Z"/><path class="cls-4" d="M173.65,61.12l11.21-8.24-51.5-.26-5.24-5.13c-.2-1-.39-2-.59-3A56.11,56.11,0,0,0,118,39.11a38,38,0,0,0-8.29-2.89,31.5,31.5,0,0,0-5.84-.65h-1l.06-.11,3.29-5.8-3.5-6.9q-3.51,6.15-7,12.31l-.09.15-5,.15.06-.18L98,10.87,93.07,1.18,77.86,36.45a43,43,0,0,0-20.08,8.48c-.12,1-.23,1.94-.35,2.91a16.12,16.12,0,0,0-2.33,1.87,16.51,16.51,0,0,0-1.75,2c-.13.17-.24.33-.35.49l-.44,0-4-.16c.62.9,1.23,1.81,1.85,2.7l0,0-3.11,3.8-.05,0-7.73-6.6L30,51.83,44.09,64.94l.17.16c-.47.91-.93,1.83-1.4,2.75l0,0-27-16.44L1.54,51.31,40.9,80.22a33.51,33.51,0,0,0,2.32,12.11,33.91,33.91,0,0,0,5.45,9.19c-.3.85-.6,1.7-.89,2.55l1.73.6.12,5-4.13,1.78L43,118.94l8.42-3.19.57-.22,1.79,4.94-.42.29-14,9.54-3.78,11.83L60,128.89l6.28,3a24.37,24.37,0,0,0,7.1,1.16,21.08,21.08,0,0,1,3.41.23,19.14,19.14,0,0,1,3,.7,37.3,37.3,0,0,0-.94-4.9,38.51,38.51,0,0,0-2.25-6.24,85.13,85.13,0,0,0-4.84-9.28c-3.8-6.47-5.82-9.08-5.65-9.2s4.58,5.1,8.57,11.58a56.28,56.28,0,0,1,3.13,5.71,35.28,35.28,0,0,1,3,8.94,28.47,28.47,0,0,1,.36,3.25l4.5.23a7.83,7.83,0,0,0,2-3.56,8.93,8.93,0,0,0-.58-5.24c-1-2.83-2.34-6.39-4.11-10.49l9.54-5.51,8.62,4.54c.85-2.74,1.7-5.49,2.56-8.23l.39,9.1a40.86,40.86,0,0,0-4.31,9.2c-1.54,4.75-1.22,6.43-.58,7.56a5.89,5.89,0,0,0,2.66,2.35l4.06-.1a35.57,35.57,0,0,1,.83-4.85,34.44,34.44,0,0,1,1.45-4.52s0,0,0,0c.23-.58.47-1.14.71-1.67s.44-1,.64-1.39.28-.57.41-.85.42-.86.7-1.39c.06-.11.12-.22.17-.33.6-1.13,1.4-2.58,2.54-4.44,2.36-3.86,4.82-7.37,6.24-9.22l0,0a10.6,10.6,0,0,1,1.06-1.25.12.12,0,0,1,0,0s0,0,0,0,0,0,0,0a5.81,5.81,0,0,1-.63,1.24l-.15.28c-1.13,2-3.42,5.78-6.65,11.6a57.18,57.18,0,0,0-3.46,7.26c-.75,1.93-1.28,3.62-1.61,4.73-.54,1.86-.94,3.56-1.23,5.05a24.72,24.72,0,0,1,2.74-.59c1.65-.25,2.15-.13,3.86-.3.45,0,.88-.1,1.29-.16l.62-.09a27.67,27.67,0,0,0,2.8-.6,22,22,0,0,0,3.67-1.2,19.63,19.63,0,0,0,4.41-2.81,21.08,21.08,0,0,0,4.85-5.92l5.4,11.45,12.69,7.2q-4.23-12.6-8.44-25.19l-4.41-13.86a31.94,31.94,0,0,0,7.68-20.58l4.23-2.89-4.32-1.75-.14-.05.24-4h.11l11.62.7,6.55-4.72-21.4-2.62h0c0-.81,0-1.63,0-2.44h0ZM136.3,101.2a3.28,3.28,0,0,1-3.17-.67,3,3,0,0,1-.87-2,1.62,1.62,0,0,0,0-.22,1.83,1.83,0,0,1,0-.33,3.22,3.22,0,0,1,.27-.93c.6-1.22,1.85-1.19,3.43-2.09,2.26-1.27,3.28-3.35,4.42-5.67a18,18,0,0,0,1.76-6.34l0-.39c0-.25,0-.49,0-.71s0-.4,0-.58h1c0,.48,0,1,0,1.63l0,.55q0,.49-.09,1c0,.26-.07.53-.1.81-.11.83-.28,1.73-.5,2.67a43.51,43.51,0,0,1-1.59,4.59C138.2,99.7,137.53,100.8,136.3,101.2ZM137,87.73a6.94,6.94,0,0,1-1,2.6A6.66,6.66,0,0,1,134.56,92l-.33-2.38ZM63.12,73.62h8.1v5.59h-8.1Zm60.65-27.95c-.09.28-14.41-8.1-33.86-7C73.07,39.7,61.33,47.3,61.22,47S73.32,38.39,90,37.38C109.15,36.22,123.87,45.38,123.77,45.67ZM50,101.17c-1.91-.65-2.86-2.67-4.68-6.66A35.19,35.19,0,0,1,43,88.42a31.63,31.63,0,0,1-1-7.2l1.31.69a25.67,25.67,0,0,0,1.09,5c.82,2.58,1.38,4.36,2.92,6a20.83,20.83,0,0,0,3.44,2.68c1.8,1.22,2.73,1.56,3.07,2.64a2.66,2.66,0,0,1-.58,2.61C52.15,101.88,50.26,101.26,50,101.17ZM52.11,106c.42-.06,0,7.38,4.8,14.9,4,6.29,9.32,8.93,9.1,9.23s-7.18-2.42-11.19-9C50.51,114.08,51.67,106,52.11,106ZM121,129.34h0a31.23,31.23,0,0,0,9.36-10c3.79-6.76,3.43-13.13,3.66-13.13,0,0,.08.15.14.42,0,0,0,.1,0,.16s0,.11,0,.17,0,.17,0,.26,0,.21,0,.33c0,.52,0,1.17,0,1.91l0,.53c0,.34-.06.7-.1,1.07a23.57,23.57,0,0,1-3,9.2c-3.77,6.52-10.1,9.43-10.26,9.23C120.86,129.45,120.89,129.41,121,129.34Z"/><path d="M43.27,68.06l1.21-2.79,9.83,9.35Z"/><path class="cls-1" d="M44.31,64.42l-.22.52-1.26,2.89-.19.44,15.24,9Zm2.92,4.15h0l2.65,2.52h0l.84.81-6.84-4.07.75-1.73Z"/><path class="cls-2" d="M87.48,128a11.11,11.11,0,0,0-.66-3.09A48.66,48.66,0,0,0,85,120.12c-1.43-3.18-1.86-4.81-2.48-6.32s-2.11-4.69-9.63-12.34A146.59,146.59,0,0,0,60.15,90c-1.34,1.37-2.67,2.74-4,4.1l3.66.41V97a9.91,9.91,0,0,1,2.89,3,7.81,7.81,0,0,1,1.39,4.27,7.27,7.27,0,0,1-.87,3.41,10.74,10.74,0,0,0-.84-5.41,13,13,0,0,0-3.76-4.49,29.84,29.84,0,0,0-6.52-4.36c.39-1.77.77-3.53,1.16-5.29L51.51,87,47.3,84.31,41.46,80.6a30.84,30.84,0,0,0,.56,6,33.11,33.11,0,0,0,2.67,7.92,34.76,34.76,0,0,0,4.43,6.93l-.93,2.42,1.48.52a43,43,0,0,0,1.75,11.21s0,.09,0,.14a32.05,32.05,0,0,0,1.94,5,20.71,20.71,0,0,0,3.78,5.34c5.6,5.66,13.33,6.51,15.11,6.55.3,0,1.67,0,3.54.22,1.47.16,2.67.37,3.45.53a48,48,0,0,0-2-7.43,60.5,60.5,0,0,0-4.89-10.1c-3.28-5.88-5.68-10.16-7-12.55a70.72,70.72,0,0,1,9.73,12.55,50.68,50.68,0,0,1,4.6,9.43,43,43,0,0,1,2,8.15l3.81.18a6.87,6.87,0,0,0,1.57-2.42A7.36,7.36,0,0,0,87.48,128ZM50,101.17c-1.91-.65-2.86-2.67-4.68-6.66A35.19,35.19,0,0,1,43,88.42a31.63,31.63,0,0,1-1-7.2l1.31.69a25.67,25.67,0,0,0,1.09,5c.82,2.58,1.38,4.36,2.92,6a20.83,20.83,0,0,0,3.44,2.68c1.8,1.22,2.73,1.56,3.07,2.64a2.66,2.66,0,0,1-.58,2.61C52.15,101.88,50.26,101.26,50,101.17Zm16,28.94c-.24.32-7.18-2.42-11.19-9-4.31-7-3.15-15.1-2.71-15.15s0,7.38,4.8,14.9C60.92,127.17,66.23,129.81,66,130.11Z"/><path class="cls-2" d="M139.77,80.91h-.22c0,1,.08,1.92.13,2.89,0,.08,0,.17,0,.25L132.29,89c.34,1.48.67,3,1,4.44a19.29,19.29,0,0,0-6.21,4.47A14.15,14.15,0,0,0,124,102.6a13.16,13.16,0,0,0-.86,4.6,7,7,0,0,1-.77-3.27,7.38,7.38,0,0,1,1.14-3.72,9.44,9.44,0,0,1,3-3.2V94.15l4.24-.07c-1.58-1.61-3.16-3.21-4.73-4.82a89.37,89.37,0,0,0-13.28,12.6c-.21.25-5.45,6.43-7.66,11-.11.24-.82,1.76-2.24,4.78-.34.73-.65,1.44-1.28,2.85a28,28,0,0,0-1.68,4.14,21.44,21.44,0,0,0-.55,3,9.37,9.37,0,0,0-.17,2.64c.1.49.5,1.91,2.73,3.16l3.84-.06a24.15,24.15,0,0,1,.48-3.26,26.54,26.54,0,0,1,2-5.81s0,0,0,0c.25-.54.48-1.06.71-1.54s.44-1,.64-1.39c.41-.88.77-1.66,1.11-2.37.06-.11.12-.22.17-.33.86-1.8,1.55-3.13,2.28-4.37a73.31,73.31,0,0,1,6.5-9.29l0,0c.34-.41.69-.83,1.06-1.25a.12.12,0,0,1,0,0c.1-.12.2-.25.31-.37l-.25.51c-.19.38-.41.79-.63,1.24l-.15.28c-.86,1.68-2,3.75-3.25,6.11s-1.47,2.55-2.46,4.4a68.09,68.09,0,0,0-4.63,9.69,44.59,44.59,0,0,0-2,7.82,11.27,11.27,0,0,1,2.79-.6,10.89,10.89,0,0,1,2.51.07,8.6,8.6,0,0,0,2,0l.62-.09a25.12,25.12,0,0,0,8.24-3.31,23.92,23.92,0,0,0,4.71-3.84,26.3,26.3,0,0,0,5.6-10,37.26,37.26,0,0,0,2.14-13.82c.39-.41,1-1,1.62-1.87a30.08,30.08,0,0,0,5.58-13.9,39.93,39.93,0,0,0,.51-4.77ZM137,87.73a6.94,6.94,0,0,1-1,2.6A6.66,6.66,0,0,1,134.56,92l-.33-2.38Zm-2.8,21.71,0,.53c0,.34-.06.7-.1,1.07a23.91,23.91,0,0,1-3,9.07c-3.52,6.08-9.26,9-10.15,9.23h-.11c-.16-.2,5.61-3.27,9.47-10.15s3.43-13.13,3.66-13.13a1.36,1.36,0,0,1,.14.55s0,.1,0,.16,0,.11,0,.17,0,.17,0,.26,0,.21,0,.33C134.24,108.05,134.25,108.7,134.21,109.44Zm9-28.2c0,.48,0,1,0,1.63l0,.55q0,.49-.09,1c0,.26-.07.53-.1.81-.12.8-.28,1.65-.5,2.54a43.51,43.51,0,0,1-1.59,4.59c-2.69,7.19-3.36,8.29-4.59,8.69a3.28,3.28,0,0,1-3.17-.67,3,3,0,0,1-.87-1.9,1.62,1.62,0,0,0,0-.22,1.83,1.83,0,0,1,0-.33,2.91,2.91,0,0,1,.27-1.06c.6-1.22,1.85-1.19,3.43-2.09,2.26-1.27,3.28-3.35,4.42-5.67a18,18,0,0,0,1.76-6.21l0-.39c0-.25,0-.49,0-.71s0-.4,0-.58v-.13h1Z"/><path class="cls-1" d="M46.89,69.33l.34-.76,2.68,2.55Z"/><path class="cls-1" d="M51.13,60.82l1.49-1.64,3.14,5.2Z"/><path d="M53,58.86l0,0-.08-.13-.21-.34h0l-.34.38L50.66,60.6l-.27.29,7.17,5.51ZM52.54,60,54,62.37l-2.1-1.61Z"/></g></g></svg>