<svg xmlns="http://www.w3.org/2000/svg" viewBox="0 0 214.62 155.85"><defs><style>.cls-1{fill:#aa00a8;}.cls-1,.cls-2,.cls-3,.cls-5{stroke:#000;}.cls-1,.cls-2,.cls-3,.cls-5,.cls-6,.cls-7{stroke-miterlimit:10;}.cls-3,.cls-6{fill:none;}.cls-4,.cls-5{fill:#fff;}.cls-6,.cls-7{stroke:#fff;}</style></defs><g id="Layer_2" data-name="Layer 2"><g id="Layer_1-2" data-name="Layer 1"><rect class="cls-1" x="0.5" y="0.5" width="213.62" height="154.85"/><path class="cls-2" d="M81.22,72.34h4.2V68.93h3.15v3.3h7.92V68.82h3.25v3.29h3.38v3.14H99.51v5.48h6.29l10.47-12v12h9.9l2.22-4.2L118.78,80a17.52,17.52,0,0,1,2-8.33A17.7,17.7,0,0,1,129,63.9a32.23,32.23,0,0,0-5.59,11.29l12.11-4-6.11,9.49,7.56,0,.12-12.11h3.09V80.84h7.74L148,68.67l3.43,0V80.84h4l.06,3.15h-4.31v3.78h-3.21v-4h-7.79v4.08H137V83.69h-9.54l-4,6.52c-3.08,5.07-3.73,6.14-4.57,8.1a28.2,28.2,0,0,0-2.11,7.17,23.63,23.63,0,0,0-.11,5.5,13.47,13.47,0,0,1-1.56-6.75c.09-2.21.77-3.87,1.93-6.73a49.27,49.27,0,0,1,2.47-5.14c1.16-2.2,2.76-5.14,4.77-8.62h-7.8v4.08H112.9V83.62h-4.08l2.42-3.05h2.08l-.07-3.36L108,83.62l-3.37,4.27h-4.25l3.14-4.25-3.84.06v4.19l-3.43-.06v-4l-7.81-.17v4l-3.55-.06V84H81.16V80.55h4v-5.3l-4,0Z"/><path class="cls-3" d="M159.26,107.93c.25,0,1.05,7.3-2.87,14.06-3.77,6.52-10.1,9.43-10.26,9.22s5.61-3.26,9.47-10.14S159,107.9,159.26,107.93Z"/><path class="cls-3" d="M86.49,48.78c-.11-.26,12-8.64,28.74-9.66,19.18-1.16,33.9,8,33.8,8.29s-14.4-8.09-33.86-6.95C98.33,41.45,86.59,49,86.49,48.78Z"/><path class="cls-3" d="M73,86.6l4.82,3.52-1.08,4.53A8.76,8.76,0,0,1,73,86.6Z"/><path class="cls-3" d="M159.44,94.66c-.16-1.17-.32-2.34-.49-3.51l3.9-2.68a7.4,7.4,0,0,1-1.11,3.87A7.31,7.31,0,0,1,159.44,94.66Z"/><path class="cls-4" d="M167.56,77.24l0-2.55.75.36-.09,2.46Z"/><path class="cls-5" d="M77.37,107.72c.43,0,0,7.39,4.8,14.91,4,6.29,9.32,8.93,9.1,9.22s-7.18-2.42-11.19-9C75.77,115.82,76.93,107.78,77.37,107.72Z"/><path class="cls-2" d="M165,73.74l4.18.5-.2,3.85L165.1,76.6Z"/><path class="cls-2" d="M165.93,65.22h-3.4l.06,1.84,3.37.52Z"/><path class="cls-6" d="M164.62,76.45l-10.13-3,10,.28Z"/><path class="cls-6" d="M162.28,65.22l.05,1.79-10.54-1.1Z"/><path class="cls-6" d="M164.59,84.83l-6.72-3.13,6.66,1Z"/><path class="cls-6" d="M153.92,54.1,141.8,54,139,47.22,131,52.31c1.53-2.15,3.06-4.29,4.58-6.44a16.23,16.23,0,0,0-7.06-1.19l-7.93,7.25,4-8a39.54,39.54,0,0,0-8,0l-4.87,7.3c.55-2.32,1.09-4.64,1.64-7a37.49,37.49,0,0,0-7.27.72,38.13,38.13,0,0,0-6.43,1.91q-1.62,3.66-3.25,7.32l-10.64-.05q1.36,3.86,2.74,7.7l-8-7.7c-1.38-.13-2.07-.21-2.07-.22s1.29.07,3.85.27a3.91,3.91,0,0,1,1-1.28,3.84,3.84,0,0,1,1-.67l1.45-.11.55.25,2.06,0a46.12,46.12,0,0,1,9.74-5.15,48.63,48.63,0,0,1,7.62-2.21,65.86,65.86,0,0,1,15.18-1.47,50.22,50.22,0,0,1,11.13,1.14,45.13,45.13,0,0,1,8.12,2.68l8.42,4.91c.89,0,1.8.06,2.75.06h1.22a1.41,1.41,0,0,1,1.32.76A1.32,1.32,0,0,1,153.92,54.1Z"/><path class="cls-6" d="M26.8,53.05l14.32.09,27,16.45,1.4-2.75L55.27,53.58l9.52.09,7.78,6.64,3.11-3.8L73.8,53.76l4.46.18a15.77,15.77,0,0,1,2.1-2.49,16.69,16.69,0,0,1,2.33-1.86L83,46.68a42.87,42.87,0,0,1,20.08-8.49L118.33,2.92l4.89,9.7-7.41,24.49,5-.16q3.56-6.23,7.12-12.46l3.5,6.9q-1.68,3-3.35,5.91A32.54,32.54,0,0,1,135,38a38.36,38.36,0,0,1,8.29,2.9,56.66,56.66,0,0,1,9.55,5.35l.58,3,5.24,5.12,51.5.27-11.21,8.23L166.38,65.2l0,2.44,21.43,2.62L181.3,75l-11.73-.71-.24,4,4.46,1.8-4.23,2.89a31.94,31.94,0,0,1-7.68,20.58l4.41,13.86q4.22,12.59,8.44,25.19L162,135.36l-5.4-11.46a20.64,20.64,0,0,1-4.85,5.92,19.23,19.23,0,0,1-4.41,2.81,22.28,22.28,0,0,1-3.66,1.21,30.22,30.22,0,0,1-4.72.85c-1.71.16-2.21.05-3.86.3a22.6,22.6,0,0,0-2.74.59c.3-1.5.69-3.2,1.23-5.05.33-1.12.86-2.8,1.61-4.73a57.18,57.18,0,0,1,3.46-7.26c4.87-8.77,7.6-13,7.42-13.15s-3.93,4.85-7.43,10.58c-1.81,3-2.79,4.89-3.41,6.16a40.25,40.25,0,0,0-3.23,8.47,35.57,35.57,0,0,0-.83,4.85l-4.06.09a5.8,5.8,0,0,1-2.66-2.34c-.64-1.13-1-2.82.58-7.57a41.52,41.52,0,0,1,4.31-9.2l-.39-9.1c-.86,2.75-1.71,5.49-2.56,8.24L117.82,111l-9.54,5.5c1.77,4.11,3.11,7.66,4.11,10.5a8.84,8.84,0,0,1,.58,5.24,7.7,7.7,0,0,1-2,3.55l-4.5-.22a28.47,28.47,0,0,0-.36-3.25,35.28,35.28,0,0,0-3-8.94,56.28,56.28,0,0,0-3.13-5.71c-4-6.48-8.36-11.74-8.57-11.58s1.86,2.73,5.66,9.19a84.9,84.9,0,0,1,4.83,9.28,38.9,38.9,0,0,1,2.25,6.25,35.61,35.61,0,0,1,.94,4.89,19,19,0,0,0-3-.69,19.93,19.93,0,0,0-3.41-.23,24.72,24.72,0,0,1-7.09-1.17l-6.29-3L60.92,143.88l3.79-11.83,14.37-9.83c-.59-1.65-1.19-3.29-1.79-4.94l-9,3.4,2.47-7.48,4.12-1.78-.12-5-1.73-.6.89-2.56A33.58,33.58,0,0,1,66.16,82Z"/><path class="cls-7" d="M68.54,69.81,69.75,67l9.83,9.35Z"/><path class="cls-7" d="M75.94,56.9c2.73,4.41,5.33,8.24,8.07,12.65-3.86-3.06-7.24-5.92-11.1-9C74,59.22,74.81,58.25,75.94,56.9Z"/><path class="cls-2" d="M82.14,54.05l-3.34-.24a12,12,0,0,1,2.25-2.56A12.59,12.59,0,0,1,82.82,50l.56-3.21a49.69,49.69,0,0,1,8.8-5,54.17,54.17,0,0,1,10.9-3.34,76,76,0,0,1,12.73-1.55,71.63,71.63,0,0,1,8.22,0l.73,0a56,56,0,0,1,9.69,1.35,51.29,51.29,0,0,1,5.11,1.53,61.79,61.79,0,0,1,5.9,2.4,54.7,54.7,0,0,1,7.14,4.13l.44,3.27,5,4.72-3.68-.24a2,2,0,0,0-.45-1.4c-.39-.41-.92-.46-1.73-.53a20.9,20.9,0,0,0-3.4,0c-1-.62-2.32-1.48-4-2.42a48.16,48.16,0,0,0-11.18-4.92,43.39,43.39,0,0,0-10.61-1.46,73.38,73.38,0,0,0-8.67.23c-1.08.09-2.44.19-4.11.42a55.6,55.6,0,0,0-9.42,2.14,51.15,51.15,0,0,0-12.46,6.13H86.4a3.18,3.18,0,0,0-1.5-.17,3.27,3.27,0,0,0-1.25.43A4.19,4.19,0,0,0,82.14,54.05Z"/><path class="cls-2" d="M107.74,115.55c-.57-1.41-2.11-4.69-9.63-12.34a145,145,0,0,0-12.7-11.47l-4,4.1,3.66.41v2.44a10.15,10.15,0,0,1,2.89,3A7.88,7.88,0,0,1,89.34,106a7.27,7.27,0,0,1-.87,3.41,10.79,10.79,0,0,0-.84-5.42,12.93,12.93,0,0,0-3.76-4.48,29.82,29.82,0,0,0-6.52-4.37l1.16-5.28L66.72,82.35a30.84,30.84,0,0,0,.56,6A32.84,32.84,0,0,0,70,96.28a34.6,34.6,0,0,0,4.42,6.93l-.93,2.41,1.48.53a42.87,42.87,0,0,0,1.75,11.2,24.46,24.46,0,0,0,5.76,10.5c5.6,5.66,13.33,6.51,15.11,6.55.3,0,1.68,0,3.54.22,1.47.16,2.67.37,3.45.52a48,48,0,0,0-2-7.42,60.13,60.13,0,0,0-4.89-10.1c-3.28-5.89-5.68-10.16-7-12.55a70.36,70.36,0,0,1,9.73,12.55,49.35,49.35,0,0,1,4.6,9.43,42.78,42.78,0,0,1,2,8.15l3.81.18a7,7,0,0,0,1.57-2.42,7.41,7.41,0,0,0,.43-3.18,11,11,0,0,0-.66-3.08,47.57,47.57,0,0,0-1.86-4.83C108.79,118.69,108.36,117.06,107.74,115.55Z"/><path class="cls-2" d="M130.34,114.69c2.2-4.52,7.44-10.7,7.65-11a88.85,88.85,0,0,1,13.28-12.6L156,96l-4.24.07v2.85a9.64,9.64,0,0,0-3,3.2,7.56,7.56,0,0,0-1.14,3.73,7.12,7.12,0,0,0,.77,3.26,13.23,13.23,0,0,1,.86-4.6,14.26,14.26,0,0,1,3.08-4.72,19.24,19.24,0,0,1,6.21-4.46c-.33-1.48-.67-3-1-4.44L165,85.91l-.14-3.14,4.5.2a37.93,37.93,0,0,1-.51,4.77,30,30,0,0,1-5.58,13.89,23.72,23.72,0,0,1-1.62,1.88,37,37,0,0,1-2.14,13.82,26.19,26.19,0,0,1-5.6,10,22.93,22.93,0,0,1-4.71,3.84c-3.15,1.95-7.81,3.8-10.87,3.43a12,12,0,0,0-2.52-.06,11.45,11.45,0,0,0-2.79.59,44.44,44.44,0,0,1,2-7.81,68.7,68.7,0,0,1,4.63-9.7c1-1.84,1.15-2,2.46-4.39,1.89-3.43,3.34-6.26,4.28-8.14a72.58,72.58,0,0,0-7.95,11c-1.34,2.27-2.54,4.86-4.93,10a24.76,24.76,0,0,0-2.52,9.06l-3.84.07c-2.23-1.26-2.63-2.67-2.73-3.17a9.07,9.07,0,0,1,.18-2.63,20.35,20.35,0,0,1,.54-3,29,29,0,0,1,1.68-4.13c.63-1.41.94-2.12,1.28-2.86C129.51,116.44,130.22,114.93,130.34,114.69Z"/><path class="cls-4" d="M72.15,71.08l.35-.76,2.68,2.55Z"/><rect class="cls-1" x="88.39" y="75.37" width="8.09" height="5.59"/><path class="cls-1" d="M168.49,83a25.76,25.76,0,0,1-.75,6.67,39.66,39.66,0,0,1-1.59,4.6c-2.69,7.19-3.35,8.29-4.59,8.68a3.29,3.29,0,0,1-3.17-.67,3.16,3.16,0,0,1-.58-3.5c.6-1.23,1.84-1.2,3.42-2.09,2.26-1.28,3.28-3.35,4.42-5.68a18.19,18.19,0,0,0,1.84-8Z"/><path class="cls-1" d="M67.25,83l1.31.7a26.78,26.78,0,0,0,1.09,5c.83,2.58,1.38,4.35,2.93,6A19.91,19.91,0,0,0,76,97.35c1.81,1.21,2.74,1.56,3.07,2.64a2.64,2.64,0,0,1-.58,2.61c-1.08,1-3,.4-3.22.32-1.9-.66-2.85-2.67-4.67-6.67a34.4,34.4,0,0,1-2.31-6.09A31.65,31.65,0,0,1,67.25,83Z"/><path class="cls-4" d="M76.39,62.57l1.5-1.64L81,66.13Z"/></g></g></svg>